<?xml version="1.0" encoding="utf-8"?>
<!-- Generator: Adobe Illustrator 18.1.1, SVG Export Plug-In . SVG Version: 6.00 Build 0)  -->
<svg version="1.1" id="Слой_1" xmlns="http://www.w3.org/2000/svg" xmlns:xlink="http://www.w3.org/1999/xlink" x="0px" y="0px"
	 viewBox="0 0 85 85" enable-background="new 0 0 85 85" xml:space="preserve">
<g>
	<path d="M42.9,9c0.1,0,0.3,0.1,0.4,0.1c0.9,0.1,1.5,0.6,2.1,1.2c3.7,3.7,7.5,7.5,11.3,11.2c0.7,0.6,1.1,1.4,1.1,2.3
		c0,0.8-0.2,1.6-0.9,2.1c-0.6,0.5-1.4,0.7-2.2,0.7c-1.2,0-2.4,0-3.5,0c-0.1,0-0.2,0-0.4,0c0,0.1,0,0.3,0,0.4c0,2.5,0,4.9,0,7.4
		c0,1.5-0.7,2.7-2.1,3.4c-0.6,0.3-1.2,0.4-1.9,0.4c-2.8,0-5.5,0-8.3,0c-1.5,0-2.8-0.7-3.5-2c-0.3-0.6-0.4-1.2-0.4-1.9
		c0-2.4,0-4.9,0-7.3c0-0.1,0-0.3,0-0.4c-0.2,0-0.3,0-0.4,0c-1.3,0-2.5,0-3.8,0c-0.8,0-1.6-0.1-2.2-0.7c-0.8-0.7-1.1-1.5-0.9-2.5
		c0.1-0.8,0.5-1.4,1.1-2c3.7-3.7,7.4-7.4,11.2-11.2C40.2,9.7,41,9.2,42,9.1c0.1,0,0.1,0,0.2-0.1C42.4,9,42.6,9,42.9,9z M48.4,30.3
		c0-1.4,0-2.8,0-4.1c0-1,0.6-1.7,1.7-1.7c1.5,0,3,0,4.6,0c0.3,0,0.7,0,0.8-0.4c0.1-0.3-0.1-0.6-0.3-0.8c-3.8-3.8-7.7-7.7-11.5-11.5
		c-0.7-0.7-1.6-0.7-2.3,0c-3.8,3.8-7.7,7.7-11.5,11.5c-0.1,0.1-0.2,0.3-0.3,0.4c-0.1,0.3,0,0.5,0.2,0.6c0.2,0.1,0.4,0.1,0.6,0.1
		c1.6,0,3.2,0,4.8,0c0.2,0,0.4,0,0.5,0.1c0.7,0.2,1.1,0.8,1.1,1.6c0,2.8,0,5.6,0,8.3c0,1,0.7,1.7,1.6,1.7c2.8,0,5.6,0,8.3,0
		c1,0,1.6-0.7,1.6-1.6C48.4,33.1,48.4,31.7,48.4,30.3z"/>
	<path d="M42.3,76c-0.2-0.1-0.4-0.1-0.7-0.2c-0.8-0.1-1.4-0.6-2-1.1C36,71,32.2,67.3,28.5,63.6c-0.6-0.6-0.9-1.3-1-2.2
		c-0.1-1.1,0.8-2.3,1.9-2.6c0.7-0.2,1.3-0.3,2-0.2c0.9,0,1.9,0,2.8,0c0.1,0,0.2,0,0.4,0c0-0.2,0-0.3,0-0.4c0-2.6,0-5.2,0-7.7
		c0-1.5,0.6-2.8,2-3.5c0.5-0.3,1.2-0.4,1.8-0.4c2.8,0,5.6-0.1,8.4,0c1.5,0,2.8,0.7,3.5,2.2c0.2,0.5,0.4,1.1,0.4,1.7
		c0,2.6,0,5.2,0,7.9c0,0.1,0,0.3,0,0.4c0.1,0,0.2,0,0.4,0c0.9,0,1.8,0,2.7,0c0.6,0,1.1,0.1,1.7,0.2c1.3,0.2,2,1.3,2.1,2.5
		c0,0.9-0.3,1.6-1,2.3c-2.4,2.3-4.7,4.7-7,7c-1.3,1.3-2.7,2.7-4,4c-0.7,0.7-1.6,1.2-2.6,1.3c-0.1,0-0.1,0-0.1,0.1
		C42.6,76,42.4,76,42.3,76z M48.4,54.8c0-1.5,0-2.9,0-4.4c0-1.1-0.6-1.7-1.7-1.7c-2.7,0-5.4,0-8.1,0c-1.1,0-1.7,0.6-1.7,1.7
		c0,2.9,0,5.8,0,8.7c0,1.1-0.6,1.7-1.7,1.7c-1.2,0-2.4,0-3.5,0c-0.4,0-0.8,0-1.3,0c-0.2,0-0.5,0.2-0.6,0.3c-0.1,0.2,0.1,0.4,0.2,0.6
		c0,0,0.1,0.1,0.1,0.1c3.7,3.8,7.5,7.5,11.2,11.3c0.7,0.7,1.6,0.7,2.4,0c3.7-3.7,7.4-7.4,11.2-11.2c0.2-0.2,0.5-0.5,0.4-0.9
		c-0.2-0.3-0.5-0.3-0.9-0.3c-1.4,0-2.8,0-4.2,0c-1.1,0-1.7-0.6-1.7-1.7C48.4,57.7,48.4,56.2,48.4,54.8z"/>
	<path d="M9,42.2c0-0.2,0.1-0.3,0.1-0.5c0.1-0.8,0.5-1.4,1.1-1.9c3.8-3.8,7.6-7.6,11.3-11.3c0.6-0.6,1.3-0.9,2.2-1
		c1.1-0.1,2.4,0.8,2.6,1.9c0.1,0.6,0.2,1.2,0.2,1.8c0,7.8,0,15.5,0,23.3c0,0.8-0.2,1.6-0.7,2.3c-0.5,0.7-1.8,1.1-2.5,0.9
		c-0.8-0.2-1.4-0.6-2-1.1c-3.7-3.7-7.3-7.3-11-11C9.7,44.8,9.2,44,9.1,43c0,0,0-0.1-0.1-0.1C9,42.6,9,42.4,9,42.2z M24.3,42.5
		c0-3.9,0-7.9,0-11.8c0-0.2,0-0.3,0-0.5c-0.1-0.6-0.4-0.7-0.9-0.4c-0.1,0.1-0.1,0.1-0.2,0.2c-3.8,3.8-7.6,7.6-11.3,11.3
		c-0.8,0.8-0.7,1.7,0,2.4c3.7,3.7,7.5,7.5,11.2,11.2c0.1,0.1,0.3,0.3,0.5,0.4c0.3,0.2,0.6,0.1,0.7-0.3c0.1-0.2,0.1-0.4,0.1-0.6
		C24.3,50.4,24.3,46.5,24.3,42.5z"/>
	<path d="M58.7,42.5c0-3.8,0-7.6,0-11.4c0-0.6,0.1-1.2,0.2-1.7c0.3-0.8,0.8-1.3,1.6-1.6c1.3-0.4,2.3,0,3.2,0.9
		c3.7,3.7,7.4,7.4,11.1,11.1c0.8,0.8,1.2,1.8,1.1,2.9c0,1-0.4,2-1.2,2.7c-1.7,1.7-3.4,3.4-5.1,5.1c-1.9,1.9-3.9,3.9-5.8,5.8
		c-0.6,0.6-1.3,1.1-2.2,1.1c-0.8,0-1.6-0.3-2.2-0.9c-0.6-0.7-0.7-1.5-0.7-2.4C58.7,50.2,58.7,46.3,58.7,42.5z M61,42.5
		c0,3.8,0,7.7,0,11.5c0,0.2,0,0.5,0.1,0.7c0.1,0.3,0.3,0.4,0.6,0.3c0.1-0.1,0.3-0.1,0.4-0.2c3.7-3.7,7.5-7.4,11.2-11.2
		c0.7-0.7,0.7-1.6,0-2.3c-3.7-3.7-7.4-7.4-11-11c-0.1-0.1-0.3-0.3-0.4-0.3c-0.3-0.2-0.6-0.1-0.7,0.3C61,30.5,61,30.7,61,31
		C61,34.8,61,38.7,61,42.5z"/>
</g>
</svg>
