<?xml version="1.0" encoding="utf-8"?>
<!-- Generator: Adobe Illustrator 18.1.1, SVG Export Plug-In . SVG Version: 6.00 Build 0)  -->
<svg version="1.1" id="Слой_1" xmlns="http://www.w3.org/2000/svg" xmlns:xlink="http://www.w3.org/1999/xlink" x="0px" y="0px"
	 viewBox="0 0 85 85" enable-background="new 0 0 85 85" xml:space="preserve">
<g>
	<g>
		<g>
			<path fill="#201600" d="M67.4,63.5c-0.7,0-1.2-0.5-1.2-1.2c0-3.1-2.1-8.7-4.7-9.8c-0.4-0.2-0.7-0.5-0.7-1
				c-0.1-0.4,0.1-0.8,0.4-1.1c1-0.8,1.6-1.9,1.6-3.1c0-2.3-2.1-4.1-4.6-4.1c-2.6,0-4.6,1.8-4.6,4.1c0,1.2,0.6,2.3,1.6,3.1
				c0.3,0.3,0.5,0.7,0.5,1.1c-0.1,0.4-0.3,0.8-0.7,1c-2.6,1.1-4.7,6.7-4.7,9.8c0,0.7-0.5,1.2-1.2,1.2c-0.7,0-1.2-0.5-1.2-1.2
				c0-3.3,1.8-8.7,4.7-11.1c-0.8-1.1-1.3-2.4-1.3-3.8c0-3.6,3.2-6.5,7.1-6.5c3.9,0,7.1,2.9,7.1,6.5c0,1.4-0.5,2.7-1.3,3.8
				c2.9,2.4,4.7,7.8,4.7,11.1C68.6,63,68,63.5,67.4,63.5z"/>
		</g>
		<g>
			<path fill="#201600" d="M68.1,63.8H47.8c-0.2,0-0.4-0.5-0.4-1.2c0-0.7,0.2-1.2,0.4-1.2h20.4c0.2,0,0.4,0.5,0.4,1.2
				C68.6,63.3,68.4,63.8,68.1,63.8z"/>
		</g>
	</g>
	<g>
		<path fill="#201600" d="M61.5,21.2H22.3c-3.2,0-5.8,2.6-5.8,5.8v27.8c0,3.2,2.6,5.8,5.8,5.8h20.5c0.7,0,1.2-0.5,1.2-1.2
			c0-0.7-0.5-1.2-1.2-1.2H22.3c-1.9,0-3.4-1.5-3.4-3.4V27c0-1.9,1.5-3.4,3.4-3.4h39.2c1.9,0,3.4,1.5,3.4,3.4v9.3
			c0,0.7,0.5,1.2,1.2,1.2s1.2-0.5,1.2-1.2V27C67.3,23.8,64.7,21.2,61.5,21.2z"/>
	</g>
	<g>
		<g>
			<path fill="#201600" d="M39.3,47.4c0.3,0,0.6-0.1,0.8-0.4L50,36.5c0.4-0.5,0.4-1.2,0-1.7c-0.5-0.5-1.2-0.5-1.6,0l-9.8,10.5
				c-0.4,0.5-0.4,1.2,0,1.7C38.8,47.3,39,47.4,39.3,47.4z"/>
		</g>
	</g>
	<g>
		<path fill="#201600" d="M38.6,46.8c0.3,0,0.6-0.1,0.8-0.4c0.4-0.5,0.4-1.2,0-1.7L36,41.3c-0.5-0.5-1.2-0.5-1.6,0
			c-0.4,0.5-0.4,1.2,0,1.7l3.4,3.5C38.1,46.7,38.4,46.8,38.6,46.8z"/>
	</g>
</g>
</svg>
