<?xml version="1.0" encoding="utf-8"?>
<!-- Generator: Adobe Illustrator 18.1.1, SVG Export Plug-In . SVG Version: 6.00 Build 0)  -->
<svg version="1.1" id="Слой_1" xmlns="http://www.w3.org/2000/svg" xmlns:xlink="http://www.w3.org/1999/xlink" x="0px" y="0px"
	 viewBox="0 0 85 85" enable-background="new 0 0 85 85" xml:space="preserve">
<g fill="#fff">
	<path d="M9.8,44.2c0-1.1,0-2.2,0-3.3c0.1-0.4,0.3-0.8,0.3-1.3c1.4-14.5,11.4-25.8,25.7-29c1.7-0.4,3.4-0.6,5.1-0.9
		c1.1,0,2.2,0,3.3,0c0.5,0.1,0.9,0.3,1.4,0.3c13.3,1,25.1,11,28.4,24c0.6,2.2,0.9,4.5,1.3,6.8c0,1.1,0,2.2,0,3.3
		c-0.1,0.5-0.3,0.9-0.3,1.4c-1.1,13.9-11.6,25.7-25.3,28.7c-1.8,0.4-3.7,0.7-5.5,1c-1.1,0-2.2,0-3.3,0c-0.5-0.1-0.9-0.3-1.4-0.3
		c-13.8-1.1-25.8-11.6-28.7-25.3C10.3,47.8,10.1,46,9.8,44.2z M33,36.5c1.9,0.4,4.6-2,4.7-4.1c0.1-2.8,2-4.6,4.8-4.6
		c2.7,0,4.6,1.8,5.1,4.7c0.1,0.8,0.2,1.5,0.3,2.4c2.2-0.7,3.1-2.2,3.5-4.1c0.2-0.8,0.7-1.6,1.8-1.4c1,0.2,1.3,1,1.2,1.9
		c-0.1,2.1-0.3,4.2-0.4,6.3c0,0.7,0,1.4,0,2.1c0.2,0,0.3,0.1,0.5,0.1c0.3-0.4,0.7-0.7,1-1.2c0.9-1.4,1.7-2.9,2.6-4.3
		c0.5-0.9,1.1-1.8,2.3-1.4c1.1,0.4,1.3,1.4,1.3,2.4c0,1.7-0.1,3.5-0.1,5.2c0,0.5,0.2,1,0.3,1.7c1.7-1.3,2.2-3,2.8-4.6
		c0.1-0.2-0.1-0.6-0.3-0.8c-1.6-1.8-1.8-4-1.8-6.3c0-1.8,0.8-2.8,2.2-2.8c1.5-0.1,2.8,1.1,2.8,2.8c0,1.7-0.3,3.3-0.4,5
		c0,0.4,0.3,1.1,0.6,1.1c1.6,0.3,4-2.8,3.4-4.4c-4.6-13.1-17.9-21.5-31.7-20c-16.6,1.8-28.7,16.7-26.9,33.3
		c1.7,16.6,16.8,28.8,33.4,27c17.5-1.9,29.7-18.3,26.6-35.5c-0.1-0.4-0.2-0.8-0.4-1.4c-0.6,0.5-1.1,1-1.6,1.3c-0.6,0.4-1.4,1.1-2,1
		c-2-0.3-2.5,1-3.1,2.4c-0.2,0.5-0.5,1-0.8,1.4c-0.7,1.2-1.4,2.5-3.1,2.3c-1.2-0.1-2.3-1.7-2.5-3.5c-0.1-0.6-0.1-1.3-0.1-1.9
		c0-0.4-0.2-0.7-0.3-1.3c-0.8,1.2-1.3,2.1-1.9,3c-0.8,1.1-1.5,2.6-3.2,2.3c-1.8-0.3-2.1-2.1-2.5-3.5c-0.1-0.3-0.1-0.7-0.1-1
		c-0.1-0.8-0.2-1.5-0.4-2.4c-1.7,1-3.5,1.4-4.1,3.4c-0.2,0.7-1,1.4-1.6,1.9c-1.8,1.5-4,1.2-5.1-0.9c-0.5-1-0.5-2.2-0.7-3.4
		c-0.1-0.5,0-1.1,0-1.9c-0.5,0.4-0.7,0.5-0.9,0.7c-1.3,1.5-2.7,2.9-5,2.6c-0.3,0-0.7,0.5-0.9,0.8c-0.6,1-1,2.1-1.6,3.2
		c-0.7,1.1-1.4,2.3-2.9,2c-1.6-0.3-2.1-1.7-2.4-3.1c-0.1-0.4-0.1-0.9-0.1-1.3c-0.1-0.7-0.2-1.4-0.3-2.4c-1,1.5-1.7,2.7-2.5,3.8
		c-1.8,2.3-3.7,2.1-4.7-0.6c-1.2-3.4-1-6.8,0.4-10.1c0.2-0.5,1.2-1.1,1.5-0.9c0.5,0.2,1.1,1,1.1,1.6c0.1,1.3-0.1,2.7-0.1,4
		c0,1.6,0,3.1,0,4.7c0.7-0.3,1-0.7,1.3-1.1c1-1.6,1.9-3.3,2.9-4.8c0.3-0.5,1.3-1,1.8-0.9c0.5,0.1,1,1,1.3,1.6c0.2,0.4,0.1,1,0.1,1.5
		c0,1.5-0.1,3.1-0.1,4.6c0,0.5,0.2,0.9,0.3,1.4c0.2,0,0.4,0.1,0.5,0.1c0.6-1.2,1.3-2.4,2-3.5c0.5-0.8,0.3-1.4-0.2-2.1
		c-1.4-1.9-1.8-4.1-1.5-6.3c0.1-1.2,0.6-2.2,2-2.4c1.3-0.1,2.5,0.6,2.8,1.9c0.2,1.2,0.2,2.5,0.1,3.8C33.5,34.6,33.2,35.6,33,36.5z
		 M44.4,30.1c-0.7,1.5-1.4,2.7-1.9,4c-0.1,0.2,0.3,0.9,0.6,1c0.6,0.2,1.4,0.4,2,0.3c0.4,0,1-0.5,1.1-0.9C46.4,33,46,31.6,44.4,30.1z
		 M31.3,34.4c0.2,0,0.3-0.1,0.5-0.1c0-1.4,0.1-2.8,0-4.1c0-0.3-0.6-0.5-0.9-0.8c-0.2,0.3-0.6,0.6-0.6,0.9
		C30.1,31.7,30.5,33.1,31.3,34.4z M64.9,34.4c0.3,0,0.6,0,0.8,0c0-1.4,0.1-2.9,0-4.3c0-0.3-0.6-0.5-1-0.7c-0.2,0.3-0.5,0.7-0.5,1
		C64.4,31.7,64.7,33,64.9,34.4z M45,37.8c-0.1-0.1-0.1-0.3-0.2-0.4c-0.6-0.1-1.2-0.2-1.8-0.3c-1.1-0.1-1.3,0.5-0.9,1.3
		c0.2,0.4,0.8,0.9,1,0.8C43.8,38.8,44.4,38.2,45,37.8z"/>
	<path d="M42.6,63c-5-0.3-9.5-1.4-13.1-5.1c-0.5-0.5-1-1.1-1.3-1.8c-0.2-0.4,0.1-0.9,0.1-1.4c0.5,0.1,1,0.2,1.4,0.4
		c0.1,0,0.1,0.2,0.2,0.2c3.4,4.4,8.1,5.8,13.3,5.6c1.4,0,2.9-0.2,4.2-0.5c3.3-0.9,6.1-2.5,8.1-5.4c0.2-0.3,0.9-0.3,1.4-0.5
		c0,0.5,0.3,1.2,0.1,1.5c-1.5,1.5-2.9,3.2-4.7,4.4C49.5,62.4,46,62.8,42.6,63z"/>
</g>
</svg>
