<?xml version="1.0" encoding="utf-8"?>
<!-- Generator: Adobe Illustrator 18.1.1, SVG Export Plug-In . SVG Version: 6.00 Build 0)  -->
<svg version="1.1" id="Слой_1" xmlns="http://www.w3.org/2000/svg" xmlns:xlink="http://www.w3.org/1999/xlink" x="0px" y="0px"
	 viewBox="0 0 85 85" enable-background="new 0 0 85 85" xml:space="preserve">
<g fill="#fff">
	<path d="M7.3,31.9c0.2-0.5,0.4-1,0.6-1.4c1-2.7,3.3-4.2,6.4-4.2c4.9,0.1,9.9,0.2,14.8,0.2c8.8,0,15.3-3.6,18.9-11.9
		c0.2-0.4,0.5-0.8,0.8-1.2c0.5,0,1,0,1.4,0c0.2,0.8,0.7,1.7,0.7,2.5c0.1,3.5,0,7,0,10.5c0,0.5,0,1,0,1.5c4.7,1.2,6.6,3.2,7.1,7.4
		c0.5,3.8-2.3,7.6-6,8.2c-1,0.2-1.1,0.6-1.1,1.4c0,3.7,0,7.5,0,11.2c0,0.9,0,1.8-1.1,2c-1.1,0.2-1.6-0.4-2-1.3
		c-2.9-6.6-8.3-10.2-15.2-10.9c-5.5-0.6-11.1-0.3-16.7-0.3c-0.8,0-1.5,0-2.3,0c-2.8-0.1-5-1.8-5.9-4.4c-0.1-0.4-0.3-0.7-0.4-1
		C7.3,37.5,7.3,34.7,7.3,31.9z M30.3,29c0,4.8,0,9.5,0,14.2c7.3,0.5,13.4,3.2,18.1,9.4c0-11.3,0-22.1,0-33.3
		C43.8,25.7,37.8,28.6,30.3,29z M20.4,29c0-0.1,0-0.1,0-0.2c-1,0-2,0-3,0c-1,0-2,0-3,0c-2.8,0-4.5,1.6-4.5,4.4c0,1.9,0,3.8,0,5.8
		c0,2.8,1.5,4.5,4.3,4.5c4.2,0,8.3-0.1,12.5-0.1c0.8,0,1.1-0.3,1.1-1.1c0-4,0-8.1,0-12.1c0-0.9-0.3-1.2-1.2-1.2
		C24.6,29,22.5,29,20.4,29z M51.1,41.2c2.8-0.1,4.8-2.6,4.7-5.4c-0.2-2.9-2.3-5.2-4.7-4.9C51.1,34.3,51.1,37.7,51.1,41.2z"/>
	<path d="M23.8,72c-6.9-1.9-8.8-7.5-9.4-13.7c-0.3-2.9,0.1-5.9,0.2-8.9c0-1,0.2-2,1.5-1.8c1.3,0.2,1,1.4,0.9,2.3
		c-0.7,4.3-0.7,8.5,0.7,12.7c0.6,1.6,1.4,3.3,2.5,4.6c2.5,2.9,6.2,2.9,9.4,0.2c-0.6-0.6-1.1-1.1-1.6-1.7c-2.4-2.9-3.2-6.4-3.6-10
		c-0.2-2,0-4,0-6c0-0.3,0-0.8,0.2-1c0.4-0.4,0.9-0.7,1.3-1.1c0.3,0.5,0.9,0.9,0.9,1.4c0.1,1.9-0.2,3.9,0,5.8
		c0.3,2.4,0.9,4.9,1.7,7.2c0.6,1.8,1.9,3.2,3.7,4c1.2,0.5,1.3,1.5,0.3,2.4c-1.7,1.6-3.6,2.8-6,3.3c-0.3,0.1-0.6,0.2-0.9,0.4
		C25.1,72,24.4,72,23.8,72z"/>
	<path d="M78,36.8c-0.2,1-0.4,1.9-0.7,2.9c-0.8,3.4-2.4,6.4-4.8,8.9c-0.6,0.6-1.3,1.2-2.1,0.4c-0.7-0.7-0.4-1.4,0.2-2
		c6.2-6.7,6.3-17,0-23.8c-0.6-0.6-0.9-1.4-0.1-2c0.7-0.6,1.4-0.2,2,0.4c2.8,3,4.5,6.5,5.1,10.6c0.1,0.5,0.2,0.9,0.3,1.4
		C78,34.7,78,35.8,78,36.8z"/>
	<path d="M69,35.2c0,3.8-1.6,6.7-4.6,9c-0.7,0.5-1.5,1-2.1,0c-0.5-0.8-0.1-1.4,0.6-2c5-4.1,5-10.2,0-14.3c-0.7-0.6-1.1-1.3-0.5-1.9
		c0.3-0.3,1.5-0.3,2,0C67.2,27.9,69,31.5,69,35.2z"/>
</g>
</svg>
