<?xml version="1.0" encoding="utf-8"?>
<!-- Generator: Adobe Illustrator 18.1.1, SVG Export Plug-In . SVG Version: 6.00 Build 0)  -->
<svg version="1.1" id="Слой_1" xmlns="http://www.w3.org/2000/svg" xmlns:xlink="http://www.w3.org/1999/xlink" x="0px" y="0px"
	 viewBox="0 0 85 85" enable-background="new 0 0 85 85" xml:space="preserve">
<g fill="#fff">
	<path d="M69,36.9c-0.3,1.1-0.5,2.2-0.8,3.3c-2.7,9.9-9.3,16.3-18.4,20.4c-4.2,1.9-8.7,2.6-13.2,3.5c-4.8,0.9-9.2,2.6-12.8,5.9
		c-1.5,1.4-2.6,3.2-3.9,4.9c-0.3,0.4-0.7,0.9-1,1.3c-0.2,0-0.4,0-0.6,0c-0.3-0.6-0.8-1.1-0.8-1.7c-0.3-2.8-0.5-5.6-0.8-8.5
		c-0.2-1.9-0.4-3.7-0.6-5.6c0-1.4,0-2.9,0-4.3c0.1-0.5,0.3-1,0.4-1.5c0.7-6.2,5.8-12.3,11.8-13.4c3-0.6,6.1-0.5,9.1-0.5
		c2.7-0.1,5.3,0,8,0.1c1.8,0,2.3,0.9,1.3,2.5c-1.2,2.1-3.2,3.4-5.5,4.2c-1.3,0.5-2.8,0.7-4.1,1.2c-0.4,0.1-1,0.4-1,0.7
		c-0.1,0.4,0.3,0.9,0.6,1.2c1.5,1.2,3.3,1.4,5,1C49.8,49.8,56.8,46,61.7,39c0.9-1.4,2.4-2.4,3.8-3.4c1.1-0.7,2.5-0.6,3.5,0.5
		C69,36.4,69,36.6,69,36.9z M19.4,70.8c0.4-0.3,0.6-0.4,0.7-0.5c4.5-5.1,10.4-7.6,17-8.6c4.7-0.8,9.3-1.8,13.5-4
		c7.4-3.8,12.8-9.3,15.1-17.4c0.2-0.7,0.3-1.4,0.4-2.1C66.1,38,66,38,65.8,37.9c-0.7,0.8-1.6,1.5-2.1,2.3
		c-5,7.4-12.2,11.3-20.6,13.5c-2.8,0.7-5.6,0.6-8-1.4c-1.2-1-1.8-2.3-1.4-3.8c0.4-1.5,1.7-1.9,3-2.3c1.9-0.6,3.8-1.2,5.6-1.9
		c0.4-0.2,0.8-0.6,1.1-0.9c-0.6-0.4-1.2-0.4-1.7-0.4c-3.5,0.1-7,0.1-10.5,0.2C25,43.4,19.8,48,18.8,54.3
		C17.9,59.8,19,65.1,19.4,70.8z"/>
	<path d="M54.7,8.8C55.1,9,55.6,9.2,56,9.4c2.1,0.9,3.3,2.5,3.5,4.7c0.2,2.1-0.6,4.1-2.6,5c-3.4,1.6-6.9,2.8-10.4,4.2
		c-0.3,0.1-0.7,0-1-0.1c-3-1.1-6.1-2.2-9.1-3.4c-2.4-1-3.9-2.9-3.7-5.6c0.2-2.7,1.7-4.5,4.4-5.1c0.1,0,0.2-0.2,0.3-0.2
		c0.6,0,1.1,0,1.7,0c4.6,1.4,5,6,6.9,9.7c1.8-3.8,2.3-8.2,6.9-9.7C53.6,8.8,54.1,8.8,54.7,8.8z M43.5,20.3c0.2-0.2,0.3-0.3,0.5-0.5
		c-1.1-2.4-2.1-4.8-3.3-7.2c-0.6-1.2-1.9-1.5-3.3-1.2c-1.2,0.3-2.1,1.2-2.4,2.4c-0.3,1.4,0.1,2.7,1.4,3.3
		C38.8,18.3,41.2,19.2,43.5,20.3z M48.2,19.8c0.1,0.2,0.3,0.3,0.4,0.5c2.3-1,4.6-1.9,6.8-3c1.4-0.6,1.9-1.9,1.6-3.4
		c-0.3-1.4-1.2-2.3-2.6-2.5c-1.5-0.3-2.7,0.3-3.3,1.6C50.1,15.2,49.2,17.5,48.2,19.8z"/>
	<path d="M61.2,26.9c-9.8,0-19.4,0-29.1,0c0,0.5-0.1,1-0.1,1.5c0,2.8,0,5.6,0,8.5c0,0.3,0.1,0.8,0,1c-0.3,0.5-0.8,0.9-1.2,1.3
		c-0.4-0.5-1.1-0.9-1.1-1.4c-0.1-3.6-0.1-7.3,0-10.9c0-1.5,1-2.5,2.6-2.5c9.6,0,19.2,0,28.8,0c1.6,0,2.6,1,2.6,2.6
		c0,2.3,0,4.6,0,6.9c0,0.8-0.1,1.5-1.1,1.5c-1.1,0.1-1.2-0.8-1.3-1.5c0-1.7,0-3.4,0-5.2C61.2,28.1,61.2,27.6,61.2,26.9z"/>
</g>
</svg>
