<?xml version="1.0" encoding="utf-8"?>
<!-- Generator: Adobe Illustrator 18.1.1, SVG Export Plug-In . SVG Version: 6.00 Build 0)  -->
<svg version="1.1" id="Слой_1" xmlns="http://www.w3.org/2000/svg" xmlns:xlink="http://www.w3.org/1999/xlink" x="0px" y="0px"
	 viewBox="0 0 85 85" enable-background="new 0 0 85 85" xml:space="preserve">
<g fill="#fff">
	<path d="M6.8,44.1c0.3-1.5,0.5-2.9,0.9-4.4c2.7-11.3,12-19.3,23.4-20.6c5.7-0.6,11,0.6,16,3.3c0.9,0.5,1.9,1.1,1.2,2.2
		c-0.6,1.1-1.6,0.5-2.4,0c-14.5-8-32.1-0.1-35.8,16C7,54,16.2,67.8,29.6,70c14.1,2.3,26.7-6.9,28.6-21.1c0.3-2,0.1-4.2-0.1-6.2
		c-0.1-1-0.1-2,1-2.2c1.3-0.2,1.4,0.9,1.5,1.8c0.8,7.2-0.7,13.8-5,19.6c-4.7,6.3-10.9,10-18.7,10.9c-0.4,0-0.7,0.2-1.1,0.3
		c-1.3,0-2.5,0-3.8,0c-0.4-0.1-0.7-0.3-1.1-0.3c-11.4-1.3-20.6-9.4-23.3-20.6c-0.3-1.4-0.6-2.9-0.9-4.4C6.8,46.6,6.8,45.4,6.8,44.1z
		"/>
	<path d="M78.2,27.6c-0.7,0.5-1.5,1.1-2.2,1.6c-4.4,3-8.8,5.9-13.3,8.8c-0.5,0.4-1.5,0.5-2.1,0.3c-2.7-0.7-5.3-1.5-7.9-2.2
		c-0.7-0.2-1.6,0-2.2,0.3c-4.3,2.8-8.5,5.6-12.8,8.5c-0.5,0.3-0.9,1-1.1,1.5c-0.5,1.5-1.8,2.4-3.2,2.1c-1.3-0.3-2.3-1.6-2.1-2.9
		c0.2-1.5,1.4-2.4,3.1-2.4c0.5,0,1.1-0.1,1.5-0.4c4.4-2.9,8.9-5.9,13.2-8.9c0.5-0.4,1-1.1,1-1.7c0.4-2.6,0.7-5.3,0.8-7.9
		c0.1-1,0.5-1.7,1.3-2.2c4.4-3,8.7-5.9,13-8.9c0.6-0.4,1.1-0.9,1.6-1.4c0.4,0,0.8,0,1.2,0c0.3,0.5,0.7,1,0.8,1.5
		c0.4,2.3,0.7,4.6,1.2,6.8c0.2,0.7,0.7,1.6,1.3,2c2.2,1.5,4.5,2.8,6.8,4.2C78.2,26.8,78.2,27.2,78.2,27.6z M54.4,33.8
		c2.1,0.6,3.9,1.2,5.7,1.6c0.7,0.1,1.6,0,2.2-0.3c3.7-2.3,7.2-4.8,10.8-7.2c0.3-0.2,0.6-0.5,1.1-0.9c-1.5-0.9-2.8-1.7-4.1-2.5
		c-0.8-0.6-1.4-0.5-2.2,0.1c-4.1,2.8-8.3,5.6-12.5,8.4C55.2,33.1,54.9,33.4,54.4,33.8z M66.6,15.8c-0.3,0.1-0.5,0.1-0.6,0.2
		c-3.9,2.7-7.8,5.3-11.7,8c-0.3,0.2-0.6,0.6-0.7,0.9c-0.3,2.1-0.5,4.2-0.7,6.3c0.3,0,0.5,0,0.6-0.1c4.5-3,9-6,13.5-9
		c0.3-0.2,0.5-0.8,0.5-1.2C67.3,19.2,66.9,17.6,66.6,15.8z"/>
	<path d="M34.5,32.2c2-0.1,4.3,0.6,6.4,1.8c0.9,0.5,1.5,1.1,1,2.1c-0.6,1.1-1.4,0.6-2.2,0.2c-7.1-3.8-15.5,0.1-16.8,8
		c-1,6,3.2,11.8,9.4,12.9c5.6,1,11.6-2.9,12.7-8.6c0.3-1.3,0.2-2.7,0.3-4c0-0.8,0.2-1.5,1.2-1.5c0.9,0,1.2,0.6,1.3,1.4
		c0.9,7.2-4.3,14.1-11.4,15.3c-7.5,1.2-14.7-3.8-16-11.2C18.8,39.9,25.4,32.1,34.5,32.2z"/>
</g>
</svg>
