<?xml version="1.0" encoding="utf-8"?>
<!-- Generator: Adobe Illustrator 18.1.1, SVG Export Plug-In . SVG Version: 6.00 Build 0)  -->
<svg version="1.1" id="Слой_1" xmlns="http://www.w3.org/2000/svg" xmlns:xlink="http://www.w3.org/1999/xlink" x="0px" y="0px"
	 viewBox="0 0 85 85" enable-background="new 0 0 85 85" xml:space="preserve">
<g>
	<g>
		<g>
			<g>
				<path fill="#201600" d="M49.5,60.9H36.8c-0.3,0-0.6-0.1-0.8-0.3c-0.2-0.2-0.3-0.5-0.3-0.8c0.8-6.7-2.7-10.5-2.8-10.7
					c-0.1-0.1-0.2-0.2-0.2-0.3c-1.3-2-2-4.3-2-6.7c0-6.8,5.6-12.4,12.4-12.4c6.8,0,12.4,5.6,12.4,12.4c0,2.8-0.9,5.4-2.6,7.6
					c-0.1,0.2-0.2,0.3-0.3,0.5c-1,1.8-2.8,4.7-2.2,9.6c0,0.3-0.1,0.6-0.3,0.8C50,60.7,49.8,60.9,49.5,60.9z M37.9,58.8h10.4
					c-0.3-4.9,1.6-8,2.6-9.7c0.1-0.2,0.2-0.4,0.3-0.6c0,0,0.1-0.1,0.1-0.1c1.4-1.8,2.2-4,2.2-6.3c0-5.7-4.6-10.3-10.3-10.3
					c-5.7,0-10.3,4.6-10.3,10.3c0,2,0.6,4,1.7,5.7c0,0,0,0,0,0.1C35.3,48.6,38.3,52.5,37.9,58.8z"/>
			</g>
			<g>
				<path fill="#201600" d="M41.7,60.4c-0.5,0-1-0.4-1-1c-0.6-9.1-3-16.6-3.2-17c0,0,0,0,0,0c-0.2-0.5,0.1-1.1,0.7-1.3
					c0.5-0.2,1.1,0.1,1.3,0.7c0,0,0,0,0,0c0.3,0.8,1.6,1.7,3.4,1.7c1.9,0,3.2-0.9,3.4-1.7c0.2-0.5,0.8-0.8,1.3-0.7
					c0.5,0.2,0.8,0.8,0.7,1.3c-0.6,1.9-2.8,3.1-5.4,3.1c-0.9,0-1.7-0.2-2.5-0.4c0.8,3.2,1.9,8.3,2.3,14.2
					C42.8,59.9,42.4,60.4,41.7,60.4C41.8,60.4,41.8,60.4,41.7,60.4z"/>
			</g>
			<g>
				<path fill="#201600" d="M44.2,60.4C44.1,60.4,44.1,60.4,44.2,60.4c-0.6,0-1.1-0.5-1-1.1c0.7-9.5,3.1-17.2,3.3-17.5
					c0.2-0.5,0.8-0.8,1.3-0.7c0.5,0.2,0.8,0.8,0.7,1.3c0,0.1-2.5,7.8-3.2,17C45.2,60,44.7,60.4,44.2,60.4z"/>
			</g>
			<g>
				<path fill="#201600" d="M23.5,56.4c-0.4,0-0.8-0.3-1-0.7c-0.2-0.5,0.1-1.1,0.6-1.3l6.8-2.3c0.5-0.2,1.1,0.1,1.3,0.6
					c0.2,0.5-0.1,1.1-0.6,1.3l-6.8,2.3C23.7,56.4,23.6,56.4,23.5,56.4z"/>
			</g>
			<g>
				<path fill="#201600" d="M27,33.9c-0.1,0-0.2,0-0.3,0l-7.4-2.3c-0.5-0.2-0.8-0.8-0.7-1.3c0.2-0.5,0.8-0.8,1.3-0.7l7.4,2.3
					c0.5,0.2,0.8,0.8,0.7,1.3C27.9,33.6,27.4,33.9,27,33.9z"/>
			</g>
			<g>
				<path fill="#201600" d="M61.9,56.4c-0.1,0-0.2,0-0.3-0.1L54.8,54c-0.5-0.2-0.8-0.8-0.6-1.3c0.2-0.5,0.8-0.8,1.3-0.6l6.8,2.3
					c0.5,0.2,0.8,0.8,0.6,1.3C62.7,56.1,62.3,56.4,61.9,56.4z"/>
			</g>
			<g>
				<path fill="#201600" d="M58,33.9c-0.4,0-0.8-0.3-1-0.7c-0.2-0.5,0.1-1.1,0.7-1.3l7.4-2.3c0.5-0.2,1.1,0.1,1.3,0.7
					c0.2,0.5-0.1,1.1-0.7,1.3l-7.4,2.3C58.2,33.9,58.1,33.9,58,33.9z"/>
			</g>
			<g>
				<path fill="#201600" d="M43.3,24.3c-0.6,0-1-0.5-1-1v-6.4c0-0.6,0.5-1,1-1s1,0.5,1,1v6.4C44.3,23.9,43.9,24.3,43.3,24.3z"/>
			</g>
		</g>
	</g>
	<g>
		<path fill="#201600" d="M49.3,65H37.2c-0.6,0-1-0.5-1-1c0-0.6,0.5-1,1-1h12.1c0.6,0,1,0.5,1,1C50.3,64.5,49.8,65,49.3,65z"/>
	</g>
	<g>
		<path fill="#201600" d="M47.4,69.2H39c-0.6,0-1-0.5-1-1c0-0.6,0.5-1,1-1h8.5c0.6,0,1,0.5,1,1C48.5,68.7,48,69.2,47.4,69.2z"/>
	</g>
</g>
</svg>
