<?xml version="1.0" encoding="utf-8"?>
<!-- Generator: Adobe Illustrator 18.1.1, SVG Export Plug-In . SVG Version: 6.00 Build 0)  -->
<svg version="1.1" id="Слой_1" xmlns="http://www.w3.org/2000/svg" xmlns:xlink="http://www.w3.org/1999/xlink" x="0px"
     y="0px"
     viewBox="0 0 166 65" enable-background="new 0 0 166 65" xml:space="preserve">
    <linearGradient id="linear-gradient" x1="0%" y1="0%" x2="0%" y2="100%">
        <stop offset="0%" stop-color="#ffc600"/>
        <stop offset="100%" stop-color="#ffec4b"/>
    </linearGradient>
    <g fill="url(#linear-gradient)">
	    <path d="M90.3,56.6c-0.9-0.4-1.1-1.1-1-2c0.9-7.6,1.7-15.3,2.5-22.9c0.5-4.2,0.9-8.4,1.4-12.5c0.1-1.1,0.5-1.7,1.5-1.7
		c3.3,0,6.6-0.1,9.9,0.1c2.8,0.2,4.3,1.9,4.2,4.8c-0.1,2.5-0.4,5-0.7,7.5c-0.5,4.5-1,8.9-1.5,13.4c-0.4,3.5-2.6,5.5-6.1,5.7
		c-0.8,0-1.7,0-2.5,0.1c-1.2,0.1-1.6,0.5-1.7,1.6c-0.2,1.3-0.4,2.6-0.4,4c-0.1,1-0.4,1.7-1.4,2C93,56.6,91.6,56.6,90.3,56.6z
		 M97.2,41.1c-0.1,1.6,0.7,2.2,2,1.8c0.6-0.2,1-0.6,1.1-1.3c0.1-1.1,0.3-2.2,0.4-3.4c0.5-4.4,1-8.8,1.4-13.1
		c0.1-1.3-0.4-1.8-1.7-1.7c-0.9,0.1-1.3,0.5-1.5,1.6c-0.1,0.9-0.2,1.9-0.3,2.8C98.2,32.4,97.7,36.8,97.2,41.1z"/>
        <path d="M159.1,19c-0.1,0.8-0.3,1.7-0.3,2.5c-0.2,1.5-0.5,1.8-1.9,2c-1.1,0.1-1.5,0.5-1.7,1.6c-0.5,4.5-1,8.9-1.5,13.4
		c-0.1,1-0.2,2-0.3,2.9c-0.1,1.1,0.2,1.4,1.3,1.6c1.5,0.2,1.7,0.5,1.5,2c-0.1,0.8-0.2,1.6-0.3,2.4c-0.1,1.1-0.6,1.6-1.7,1.6
		c-1.2,0-2.4,0-3.5-0.2c-2.6-0.4-4-2-3.9-4.6c0.1-2.1,0.3-4.1,0.6-6.2c0.6-5.4,1.2-10.9,1.8-16.3c0.4-3.4,0.7-6.8,1.1-10.2
		c0.1-1.2,0.6-1.6,1.7-1.6c1.1,0,2.2,0,3.3,0c1.1,0.1,1.4,0.5,1.3,1.6c-0.1,1.4-0.3,2.8-0.4,4.2c-0.1,1.2,0.2,1.6,1.4,1.7
		c0.8,0,1.3,0.3,1.5,1.1C159.1,18.6,159.1,18.8,159.1,19z"/>
        <path d="M16.5,40.1c0.2-0.6,0.3-1.1,0.5-1.7c1.5-6.4,3.1-12.8,4.6-19.2c0.4-1.5,0.8-1.9,2.4-1.9c0.9,0,1.8,0,2.7,0
		c1.3,0,1.7,0.4,1.8,1.8c0.1,2.6,0.1,5.3,0.2,7.9c0.1,3.6,0.1,7.3,0.2,10.9c0,0.7,0.1,1.4,0.1,2.1c0.1,0,0.2,0,0.3,0.1
		c0.1-0.5,0.3-0.9,0.4-1.4c1.4-5.6,2.7-11.2,4.1-16.9c0.2-1,0.5-2,0.7-3c0.3-1.1,0.8-1.5,1.9-1.5c1,0,2,0,3.1,0
		c1.3,0,1.7,0.4,1.4,1.7c-0.6,2.3-1.2,4.5-1.8,6.8c-1.9,7.1-3.7,14.1-5.6,21.2c-0.4,1.5-0.9,1.8-2.4,1.8c-2,0-4,0-5.9,0
		c-1.3,0-1.7-0.4-1.7-1.7c0-4.1,0.1-8.3,0.1-12.4c0-0.3,0-0.6,0-0.9c-0.1,0-0.1,0-0.2,0c-0.1,0.4-0.2,0.7-0.3,1.1
		c-0.8,4.1-1.7,8.1-2.5,12.2c-0.3,1.4-0.8,1.8-2.1,1.8c-2.1,0-4.1,0-6.2,0c-1.2,0-1.6-0.5-1.7-1.6C10.2,38,9.8,28.7,9.4,19.4
		c-0.1-1.7,0.3-2,1.9-2c0.9,0,1.9,0,2.8,0c1.2,0,1.6,0.4,1.6,1.6c0.1,3.8,0.2,7.7,0.3,11.5c0.1,2.9,0.1,5.7,0.2,8.6
		c0,0.3,0.1,0.7,0.1,1C16.4,40.1,16.5,40.1,16.5,40.1z"/>
        <path d="M73.7,34c-0.5,2.3-0.9,4.6-1.4,6.9c-0.4,2.2-0.9,4.3-1.3,6.5c-0.3,1.2-0.8,1.7-2,1.7c-2.1,0-4.2,0-6.3,0
		c-1.2,0-1.6-0.5-1.7-1.6c-0.4-9.3-0.8-18.6-1.2-27.9c-0.1-1.7,0.2-2,1.9-2c0.9,0,1.9,0,2.8,0c1.2,0,1.6,0.4,1.6,1.6
		c0.1,3.8,0.2,7.5,0.3,11.3c0.1,2.9,0.1,5.9,0.2,8.8c0,0.3,0.1,0.7,0.1,1c0.1,0,0.2,0,0.2,0c0.2-0.7,0.4-1.4,0.6-2.2
		c1.5-6.2,3-12.5,4.5-18.7c0.4-1.5,0.8-1.9,2.4-1.9c0.9,0,1.9,0,2.8,0c1.2,0,1.7,0.4,1.7,1.7c0.1,2.9,0.1,5.8,0.2,8.7
		c0.1,3.8,0.2,7.6,0.3,11.4c0,0.3,0.1,0.6,0.1,0.9c0.1,0,0.1,0,0.2,0.1c0.1-0.5,0.3-0.9,0.4-1.4c1.3-5.4,2.6-10.8,3.9-16.2
		c0.3-1.2,0.6-2.4,0.9-3.5c0.3-1.2,0.8-1.6,2-1.6c1,0,2,0,3.1,0c1.3,0,1.6,0.5,1.3,1.7c-0.7,2.7-1.4,5.4-2.1,8.1
		c-1.7,6.6-3.5,13.3-5.2,19.9C83.5,48.6,83,49,81.5,49c-2,0-4,0-5.9,0c-1.3,0-1.7-0.4-1.7-1.7c0-4.1,0.1-8.3,0.1-12.4
		c0-0.3,0-0.6,0-0.9C73.9,34,73.8,34,73.7,34z"/>
        <path d="M50.3,17.4c1.1,0.1,2.2,0,3.3,0.2c3,0.5,4.4,2.3,4.1,5.3c-0.2,2.1-0.4,4.3-0.7,6.4c-0.5,4.4-1,8.8-1.5,13.2
		c-0.1,0.6-0.2,1.2-0.3,1.8c-0.6,2.6-2.3,4.2-5,4.5c-2.3,0.2-4.6,0.2-6.9,0c-2.5-0.2-4-2-3.9-4.5c0.1-2.5,0.4-5,0.7-7.5
		c0.5-4.4,1-8.9,1.5-13.3c0.4-3.8,2.6-5.9,6.5-6C48.8,17.4,49.5,17.4,50.3,17.4C50.3,17.4,50.3,17.4,50.3,17.4z M46,41.3
		c0,1.2,0.3,1.6,1.3,1.6c1.2,0,1.8-0.5,1.9-1.7c0.3-2.4,0.5-4.8,0.8-7.2c0.3-3,0.7-6.1,1-9.1c0.1-0.6,0-1.2-0.6-1.4
		c-0.9-0.4-2.4-0.2-2.5,1.3c-0.2,2.2-0.5,4.3-0.7,6.5C46.7,34.7,46.4,38.1,46,41.3z"/>
        <path d="M137.4,17.6c1.8,0,3.6-0.2,5.4,0c2.7,0.4,4,2.1,3.9,4.8c-0.1,2.3-0.4,4.6-0.7,6.8c-0.6,5.4-1.2,10.9-1.8,16.3
		c-0.1,0.6-0.1,1.3-0.2,1.9c-0.1,1-0.6,1.4-1.6,1.4c-1.1,0-2.3,0-3.4,0c-1.1,0-1.5-0.5-1.4-1.6c0.3-2.8,0.6-5.6,0.9-8.4
		c0.5-4.7,1-9.4,1.5-14.1c0.1-0.9-0.3-1.3-1.1-1.5c-1-0.1-1.9,0.3-2,1.3c-0.2,1.5-0.4,2.9-0.5,4.4c-0.7,6.1-1.3,12.2-2,18.3
		c-0.1,1.2-0.6,1.6-1.8,1.7c-1.1,0-2.1,0-3.2,0c-1.1,0-1.5-0.5-1.4-1.6c0.9-7.9,1.7-15.8,2.6-23.7c0.2-1.6,0.3-3.1,0.5-4.7
		c0.1-1.2,0.6-1.6,1.8-1.6c1.5,0,2.9,0,4.4,0C137.4,17.5,137.4,17.5,137.4,17.6z"/>
        <path d="M111.2,49c-0.6,0-1.2,0-1.8,0c-1,0-1.4-0.5-1.3-1.5c0.4-3.6,0.8-7.2,1.2-10.8c0.5-4.4,1-8.8,1.5-13.2
		c0.4-3.9,2.6-6,6.6-6.1c0.8,0,1.5,0,2.3,0c0.9,0,1.3,0.5,1.2,1.3c-0.1,1.1-0.2,2.1-0.3,3.2c-0.2,1-0.6,1.3-1.6,1.4
		c-1.5,0.1-1.8,0.4-1.9,1.8c-0.6,4.9-1.1,9.8-1.6,14.7c-0.3,2.5-0.5,4.9-0.8,7.4c-0.1,1.2-0.6,1.6-1.8,1.6
		C112.2,49,111.7,49,111.2,49C111.2,49,111.2,49,111.2,49z"/>
        <path d="M122.4,49c-0.6,0-1.1,0-1.7,0c-1,0-1.4-0.5-1.3-1.5c0.3-2.6,0.6-5.2,0.9-7.8c0.6-5.4,1.2-10.9,1.8-16.3
		c0.2-1.5,0.3-2.9,0.5-4.4c0.1-1,0.6-1.5,1.6-1.5c1.1,0,2.3,0,3.4,0c1.1,0,1.5,0.5,1.4,1.6c-0.5,4.5-1,9.1-1.5,13.6
		c-0.5,4.9-1.1,9.7-1.6,14.6c-0.2,1.4-0.6,1.8-2,1.8C123.3,49,122.8,49,122.4,49C122.4,49,122.4,49,122.4,49z"/>
        <path d="M126.8,8.4c0.6,0,1.3,0,1.9,0c0.8,0,1.2,0.5,1.1,1.2c-0.1,1.2-0.2,2.4-0.4,3.5c-0.1,0.7-0.6,1.2-1.3,1.2
		c-1.3,0-2.6,0-3.9,0c-0.7,0-1.2-0.5-1.1-1.2c0.1-1.2,0.2-2.4,0.4-3.5c0.1-0.7,0.6-1.2,1.3-1.2C125.5,8.4,126.1,8.4,126.8,8.4
		C126.8,8.4,126.8,8.4,126.8,8.4z"/>
</g>
</svg>
